# xmcd
#
# Track frame offsets:
#	187
#	26857
#	54520
#	85437
#	105635
#	125360
#	146615
#	171800
#
# Disc length: 2570 seconds
#
# Revision: 2
# Processed by: cddbd v1.4b41PL3 Copyright (c) Steve Scherf et al.
# Submitted via: EZCDDA 4.3.2
#
DISCID=6b0a0808
DTITLE=Phil Upchurch - All I Want
DYEAR=1900
DGENRE=
TTITLE0=Poison
TTITLE1=When we need it bad
TTITLE2=12/25
TTITLE3=516
TTITLE4=Grace
TTITLE5=What will I do
TTITLE6=All I want from you
TTITLE7=U god it down
EXTD=
EXTT0=
EXTT1=
EXTT2=
EXTT3=
EXTT4=
EXTT5=
EXTT6=
EXTT7=
PLAYORDER=
